<?xml version="1.0" standalone="no"?>
<!DOCTYPE svg PUBLIC "-//W3C//DTD SVG 20010904//EN"
 "http://www.w3.org/TR/2001/REC-SVG-20010904/DTD/svg10.dtd">
<svg version="1.0" xmlns="http://www.w3.org/2000/svg"
 width="594.000000pt" height="420.000000pt" viewBox="0 0 594.000000 420.000000"
 preserveAspectRatio="xMidYMid meet">

<g transform="translate(0.000000,420.000000) scale(0.100000,-0.100000)"
fill="#000000" stroke="none">
<path d="M2725 3629 c-349 -47 -652 -226 -857 -505 -166 -227 -255 -547 -228
-824 46 -486 352 -884 810 -1057 239 -91 559 -95 813 -12 427 140 754 518 832
963 19 112 19 308 0 417 -87 504 -485 908 -989 1004 -102 20 -290 27 -381 14z
m516 -359 c72 -14 129 -43 179 -92 92 -88 124 -227 118 -502 -5 -203 -21 -273
-81 -362 -35 -52 -107 -107 -165 -125 -22 -7 -125 -14 -249 -16 l-211 -5 0
-43 1 -44 32 25 c31 23 65 32 65 17 0 -5 -23 -23 -50 -42 -48 -32 -62 -51 -39
-51 6 0 42 23 80 51 94 70 126 62 36 -9 -65 -51 -67 -54 -52 -75 11 -16 15
-50 15 -145 0 -68 -5 -132 -10 -143 -10 -18 -24 -19 -243 -19 -168 0 -236 3
-245 12 -8 8 -12 56 -12 150 l0 139 -46 -36 c-50 -37 -64 -43 -64 -22 1 19
153 127 165 116 6 -7 5 -13 -5 -19 -17 -11 0 -13 24 -4 14 5 16 55 16 460 0
424 -1 455 -17 460 -10 3 -29 11 -43 17 -25 13 -25 15 -28 151 -2 93 1 143 9
152 9 12 79 14 389 14 213 0 401 -4 431 -10z m-921 -163 c0 -5 -97 -77 -104
-77 -19 0 -1 30 31 53 31 22 73 36 73 24z m50 -20 c0 -7 -30 -35 -67 -63 -89
-66 -93 -68 -93 -50 0 15 133 126 151 126 5 0 9 -6 9 -13z m0 -61 c0 -14 -135
-126 -152 -126 -24 0 3 34 67 84 75 59 85 64 85 42z m10 -65 c0 -10 -86 -79
-142 -116 -24 -15 -28 -15 -28 -2 0 9 32 41 72 71 68 53 98 67 98 47z m22 -46
c1 -12 -142 -124 -159 -125 -28 0 -10 22 65 79 74 58 93 67 94 46z m57 -31
c-18 -22 -145 -114 -158 -114 -6 0 -11 4 -11 9 0 14 162 131 172 125 5 -3 4
-12 -3 -20z m11 -53 c0 -5 -33 -33 -72 -63 -95 -71 -98 -72 -98 -54 0 8 33 40
73 70 69 53 97 67 97 47z m0 -60 c0 -11 -150 -131 -162 -131 -26 0 2 33 69 83
77 57 93 65 93 48z m0 -70 c0 -11 -146 -121 -160 -121 -25 0 -5 23 68 78 71
55 92 65 92 43z m0 -60 c0 -11 -150 -131 -162 -131 -26 0 2 33 69 83 77 57 93
65 93 48z m0 -70 c0 -11 -146 -121 -161 -121 -22 0 -2 22 66 75 67 52 95 65
95 46z m0 -58 c0 -5 -4 -13 -8 -19 -11 -16 -144 -114 -154 -114 -26 0 5 36 72
85 74 54 90 62 90 48z m0 -72 c0 -11 -150 -131 -162 -131 -26 0 2 35 65 83 70
54 97 67 97 48z m0 -65 c0 -15 -142 -126 -161 -126 -23 0 0 27 72 82 78 61 89
66 89 44z m-2 -68 c-5 -14 -148 -128 -161 -128 -23 0 5 33 68 83 68 54 101 70
93 45z m-3 -76 c-44 -37 -147 -112 -155 -112 -24 0 -5 22 68 79 48 38 81 56
87 50 6 -6 6 -12 0 -17z m3 -54 c-5 -14 -148 -128 -160 -128 -26 0 2 35 65 83
70 54 103 70 95 45z m747 -38 c-17 -28 -167 -131 -186 -128 -17 2 -7 14 51 57
92 68 153 101 135 71z m-105 -10 c0 -18 -160 -131 -182 -128 -17 2 -7 14 53
59 100 76 129 91 129 69z m-640 -20 c0 -9 -155 -130 -165 -130 -3 0 -5 8 -5
18 1 10 34 41 78 74 71 52 92 61 92 38z m760 -8 c0 -4 -15 -16 -32 -26 l-33
-18 28 26 c30 27 37 31 37 18z m-878 -212 c-33 -30 -52 -38 -52 -21 0 13 52
50 70 50 9 0 3 -11 -18 -29z m18 -43 c0 -11 -140 -127 -154 -127 -3 0 -6 7 -6
15 0 13 134 123 153 124 4 1 7 -5 7 -12z m-110 -27 c-35 -31 -50 -37 -50 -21
0 14 50 51 69 51 11 -1 5 -10 -19 -30z m110 -38 c0 -11 -26 -37 -66 -66 -79
-57 -97 -65 -93 -43 3 12 141 124 157 127 1 0 2 -8 2 -18z m0 -66 c0 -12 -139
-126 -154 -126 -22 0 7 34 69 83 75 59 85 64 85 43z m20 -56 c0 -18 -161 -133
-172 -122 -6 6 16 30 69 70 75 59 103 73 103 52z m80 -14 c0 -5 -141 -111
-167 -124 -13 -8 -24 -8 -28 -3 -7 13 153 131 177 131 10 0 18 -2 18 -4z m65
-21 c-68 -56 -164 -117 -175 -110 -16 10 149 134 180 134 l25 0 -30 -24z m105
18 c-1 -11 -157 -125 -173 -127 -31 -3 -12 20 60 74 70 53 114 73 113 53z m80
-3 c0 -10 -148 -122 -164 -124 -31 -3 -10 23 60 75 76 56 104 69 104 49z m0
-59 c0 -24 -84 -79 -94 -62 -4 5 13 23 36 40 44 32 58 38 58 22z"/>
<path d="M2830 2898 c0 -25 3 -29 12 -20 7 7 23 12 38 12 24 -1 24 -2 -12 -31
-65 -53 -44 -65 22 -14 39 30 68 45 83 43 18 -2 7 -14 -60 -62 l-83 -60 0
-123 0 -123 90 0 c70 0 92 3 96 15 6 14 144 125 157 125 4 0 7 -6 7 -14 0 -8
-32 -38 -70 -67 -79 -61 -76 -80 4 -25 29 20 56 36 59 36 16 0 5 -29 -15 -43
-13 -9 -17 -16 -10 -16 7 -1 23 10 36 23 20 19 25 38 31 108 7 90 -6 210 -26
234 -20 24 -81 34 -221 34 l-138 0 0 -32z m245 -17 c-53 -47 -168 -122 -184
-119 -28 4 134 128 169 128 14 0 20 -4 15 -9z m63 -10 c-6 -19 -162 -129 -175
-124 -17 7 -19 5 70 75 65 51 114 74 105 49z m32 -40 c0 -5 -33 -33 -72 -63
-96 -71 -101 -74 -96 -54 4 19 149 136 161 129 4 -2 7 -8 7 -12z m8 -61 c-4
-11 -148 -120 -160 -120 -23 0 -1 25 65 74 67 51 103 69 95 46z m2 -62 c-1
-13 -116 -103 -145 -114 -9 -4 -15 0 -15 7 0 13 136 118 153 119 4 0 7 -6 7
-12z"/>
<path d="M1220 725 l0 -245 40 0 40 0 0 85 0 85 63 0 c58 0 66 3 95 33 32 33
32 34 32 134 l0 101 -34 26 c-32 24 -42 26 -135 26 l-101 0 0 -245z m179 151
c7 -9 11 -38 9 -73 l-3 -58 -52 -3 -53 -3 0 69 c0 38 3 72 7 75 12 13 80 7 92
-7z"/>
<path d="M1652 937 l-32 -33 0 -180 0 -180 33 -32 c32 -31 36 -32 118 -32 83
0 86 1 117 33 l32 33 0 177 0 176 -31 36 -31 35 -87 0 c-85 0 -88 -1 -119 -33z
m166 -55 c9 -7 12 -46 10 -163 l-3 -154 -55 0 -55 0 -3 154 c-3 170 -3 171 58
171 19 0 41 -4 48 -8z"/>
<path d="M2050 725 l0 -245 40 0 40 0 0 91 0 90 37 -3 c33 -3 38 -7 46 -38 4
-19 15 -59 23 -87 l15 -53 43 0 43 0 -24 88 c-27 102 -28 125 -8 142 11 9 15
35 15 104 0 91 0 92 -33 124 -33 32 -34 32 -135 32 l-102 0 0 -245z m179 151
c7 -8 11 -37 9 -68 l-3 -53 -52 -3 -53 -3 0 64 c0 35 3 67 7 70 12 13 80 7 92
-7z"/>
<path d="M2470 931 c0 -40 0 -40 43 -43 l42 -3 3 -202 2 -203 45 0 45 0 0 205
0 205 45 0 45 0 0 40 0 40 -135 0 -135 0 0 -39z"/>
<path d="M2870 725 l0 -245 45 0 45 0 0 100 0 100 55 0 55 0 0 45 0 45 -55 0
-55 0 0 60 0 60 75 0 75 0 0 40 0 40 -120 0 -120 0 0 -245z"/>
<path d="M3277 942 l-27 -28 0 -190 0 -190 28 -27 c26 -25 34 -27 113 -27 83
0 86 1 117 33 l32 33 0 180 0 180 -33 32 c-32 31 -36 32 -118 32 -80 0 -87 -2
-112 -28z m161 -60 c9 -7 12 -46 10 -163 l-3 -154 -55 0 -55 0 -3 154 c-3 170
-3 171 58 171 19 0 41 -4 48 -8z"/>
<path d="M3670 725 l0 -245 110 0 110 0 0 40 0 39 -67 3 -68 3 -3 203 -2 202
-40 0 -40 0 0 -245z"/>
<path d="M4028 725 l-3 -245 43 0 42 0 0 245 0 245 -40 0 -39 0 -3 -245z"/>
<path d="M4272 937 l-32 -33 0 -180 0 -180 33 -32 c32 -31 36 -32 117 -32 77
0 86 2 112 27 l28 27 0 186 0 186 -33 32 c-31 31 -37 32 -113 32 -77 0 -81 -1
-112 -33z m166 -59 c8 -8 12 -57 12 -154 0 -161 -3 -167 -72 -162 l-43 3 -3
150 c-1 82 0 155 2 162 7 17 88 17 104 1z"/>
</g>
</svg>
